<mxfile host="app.diagrams.net" agent="Mozilla/5.0 (Windows NT 10.0; Win64; x64) AppleWebKit/537.36 (KHTML, like Gecko) Chrome/137.0.0.0 Safari/537.36" version="26.2.14">
  <diagram name="第 1 页" id="9klMjBLcfbbOVyAamIC9">
    <mxGraphModel dx="786" dy="505" grid="1" gridSize="10" guides="1" tooltips="1" connect="1" arrows="1" fold="1" page="1" pageScale="1" pageWidth="827" pageHeight="1169" math="0" shadow="0">
      <root>
        <mxCell id="0" />
        <mxCell id="1" parent="0" />
        <mxCell id="x06nPoVAKT_SAfbpf0Qk-3" style="edgeStyle=orthogonalEdgeStyle;rounded=0;orthogonalLoop=1;jettySize=auto;html=1;exitX=1;exitY=0.5;exitDx=0;exitDy=0;entryX=0;entryY=0.5;entryDx=0;entryDy=0;" edge="1" parent="1" source="x06nPoVAKT_SAfbpf0Qk-1" target="x06nPoVAKT_SAfbpf0Qk-2">
          <mxGeometry relative="1" as="geometry" />
        </mxCell>
        <mxCell id="x06nPoVAKT_SAfbpf0Qk-1" value="&lt;font style=&quot;font-size: 24px;&quot;&gt;loacl&lt;/font&gt;" style="rounded=1;whiteSpace=wrap;html=1;fillColor=#dae8fc;strokeColor=#6c8ebf;" vertex="1" parent="1">
          <mxGeometry x="220" y="190" width="120" height="60" as="geometry" />
        </mxCell>
        <mxCell id="x06nPoVAKT_SAfbpf0Qk-6" style="edgeStyle=orthogonalEdgeStyle;rounded=0;orthogonalLoop=1;jettySize=auto;html=1;exitX=0.5;exitY=1;exitDx=0;exitDy=0;entryX=0.5;entryY=0;entryDx=0;entryDy=0;" edge="1" parent="1" source="x06nPoVAKT_SAfbpf0Qk-2" target="x06nPoVAKT_SAfbpf0Qk-5">
          <mxGeometry relative="1" as="geometry" />
        </mxCell>
        <mxCell id="x06nPoVAKT_SAfbpf0Qk-2" value="&lt;font style=&quot;font-size: 24px;&quot;&gt;dev board&lt;/font&gt;" style="rounded=1;whiteSpace=wrap;html=1;fillColor=#fff2cc;strokeColor=#d6b656;" vertex="1" parent="1">
          <mxGeometry x="370" y="190" width="120" height="60" as="geometry" />
        </mxCell>
        <mxCell id="x06nPoVAKT_SAfbpf0Qk-4" value="tftp" style="text;html=1;align=center;verticalAlign=middle;whiteSpace=wrap;rounded=0;" vertex="1" parent="1">
          <mxGeometry x="325" y="190" width="60" height="30" as="geometry" />
        </mxCell>
        <mxCell id="x06nPoVAKT_SAfbpf0Qk-8" style="edgeStyle=orthogonalEdgeStyle;rounded=0;orthogonalLoop=1;jettySize=auto;html=1;exitX=1;exitY=0.5;exitDx=0;exitDy=0;entryX=0;entryY=0.5;entryDx=0;entryDy=0;" edge="1" parent="1" source="x06nPoVAKT_SAfbpf0Qk-5" target="x06nPoVAKT_SAfbpf0Qk-7">
          <mxGeometry relative="1" as="geometry" />
        </mxCell>
        <mxCell id="x06nPoVAKT_SAfbpf0Qk-5" value="&lt;font style=&quot;font-size: 24px;&quot;&gt;script&lt;/font&gt;" style="rounded=1;whiteSpace=wrap;html=1;fillColor=#fff2cc;strokeColor=#d6b656;" vertex="1" parent="1">
          <mxGeometry x="370" y="280" width="120" height="60" as="geometry" />
        </mxCell>
        <mxCell id="x06nPoVAKT_SAfbpf0Qk-7" value="&lt;font style=&quot;font-size: 24px;&quot;&gt;MTD partition&lt;/font&gt;" style="rounded=1;whiteSpace=wrap;html=1;fillColor=#fff2cc;strokeColor=#d6b656;" vertex="1" parent="1">
          <mxGeometry x="520" y="280" width="120" height="60" as="geometry" />
        </mxCell>
      </root>
    </mxGraphModel>
  </diagram>
</mxfile>
